<svg width="19" height="18" viewBox="0 0 19 18" fill="none" xmlns="http://www.w3.org/2000/svg">
<path d="M1.497 6.825C1.09997 6.825 0.719203 6.66728 0.438461 6.38654C0.157719 6.1058 0 5.72503 0 5.328C0 4.93097 0.157719 4.5502 0.438461 4.26946C0.719203 3.98872 1.09997 3.831 1.497 3.831C1.89403 3.831 2.2748 3.98872 2.55554 4.26946C2.83628 4.5502 2.994 4.93097 2.994 5.328C2.994 5.72503 2.83628 6.1058 2.55554 6.38654C2.2748 6.66728 1.89403 6.825 1.497 6.825ZM1.0095 2.37C1.5451 2.28259 2.09436 2.34114 2.5995 2.5395C2.80284 2.22064 3.08333 1.95822 3.415 1.77652C3.74668 1.59482 4.11882 1.49971 4.497 1.5H14.997C15.5937 1.5 16.166 1.73705 16.588 2.15901C17.0099 2.58097 17.247 3.15326 17.247 3.75V14.25C17.247 14.8467 17.0099 15.419 16.588 15.841C16.166 16.2629 15.5937 16.5 14.997 16.5H4.497C3.90026 16.5 3.32797 16.2629 2.90601 15.841C2.48405 15.419 2.247 14.8467 2.247 14.25V8.2305C1.75505 8.35739 1.23895 8.35739 0.747 8.2305V14.25C0.747 15.2446 1.14209 16.1984 1.84535 16.9016C2.54861 17.6049 3.50244 18 4.497 18H14.997C15.9916 18 16.9454 17.6049 17.6487 16.9016C18.3519 16.1984 18.747 15.2446 18.747 14.25V3.75C18.747 2.75544 18.3519 1.80161 17.6487 1.09835C16.9454 0.395088 15.9916 5.69284e-08 14.997 5.69284e-08H4.497C3.74509 -0.000130929 3.0105 0.22578 2.3886 0.648405C1.76669 1.07103 1.2862 1.67085 1.0095 2.37ZM6.747 6C6.54809 6 6.35732 6.07902 6.21667 6.21967C6.07602 6.36032 5.997 6.55109 5.997 6.75C5.997 6.94891 6.07602 7.13968 6.21667 7.28033C6.35732 7.42098 6.54809 7.5 6.747 7.5H12.747C12.9459 7.5 13.1367 7.42098 13.2773 7.28033C13.418 7.13968 13.497 6.94891 13.497 6.75C13.497 6.55109 13.418 6.36032 13.2773 6.21967C13.1367 6.07902 12.9459 6 12.747 6H6.747ZM6.747 10.5C6.54809 10.5 6.35732 10.579 6.21667 10.7197C6.07602 10.8603 5.997 11.0511 5.997 11.25C5.997 11.4489 6.07602 11.6397 6.21667 11.7803C6.35732 11.921 6.54809 12 6.747 12H10.668C10.8669 12 11.0577 11.921 11.1983 11.7803C11.339 11.6397 11.418 11.4489 11.418 11.25C11.418 11.0511 11.339 10.8603 11.1983 10.7197C11.0577 10.579 10.8669 10.5 10.668 10.5H6.747Z" fill="#AAAAAA"/>
</svg>
