<svg width="22" height="22" viewBox="0 0 22 22" fill="none" xmlns="http://www.w3.org/2000/svg">
<path d="M12.2254 13.9485L6.84039 15.0847L7.98338 9.73179C8.06586 9.34525 8.2544 8.99386 8.5372 8.71274L16.0786 1.2163C16.8798 0.4198 18.176 0.4198 18.9773 1.2163L20.7801 3.00842C21.5814 3.80491 21.5814 5.09336 20.7801 5.88986L13.2388 13.3863C12.9677 13.6674 12.6142 13.8665 12.2254 13.9485Z" stroke="#121212" stroke-width="1.2" stroke-miterlimit="10" stroke-linecap="round" stroke-linejoin="round"/>
<path d="M18.3411 8.3612V18.9616C18.3411 20.215 17.316 21.2223 16.0669 21.2223H2.89311C1.63229 21.2223 0.618924 20.2032 0.618924 18.9616V5.878C0.618924 4.62469 1.64408 3.61736 2.89311 3.61736H13.5217" stroke="#121212" stroke-width="1.2" stroke-miterlimit="10" stroke-linecap="round" stroke-linejoin="round"/>
</svg>
