<svg width="22" height="15" viewBox="0 0 22 15" fill="none" xmlns="http://www.w3.org/2000/svg">
<path d="M0 13.6714V1.32857C0 1.31429 0.021215 1.17857 0.0636451 0.921429L7.25554 7.13571L0.0848602 14.1C0.0282867 13.9 0 13.7571 0 13.6714ZM0.954677 0.0642857C1.05368 0.0214285 1.1739 0 1.31533 0H20.6847C20.812 0 20.9392 0.0214285 21.0665 0.0642857L13.8534 6.3L12.8987 7.07143L11.0106 8.63571L9.12247 7.07143L8.16779 6.3L0.954677 0.0642857ZM0.975892 14.9357L8.21022 7.92857L11.0106 10.2214L13.811 7.92857L21.0453 14.9357C20.9322 14.9786 20.812 15 20.6847 15H1.31533C1.20219 15 1.08904 14.9786 0.975892 14.9357ZM14.7657 7.13571L21.9364 0.921429C21.9788 1.05 22 1.18571 22 1.32857V13.6714C22 13.8 21.9788 13.9429 21.9364 14.1L14.7657 7.13571Z" fill="black"/>
</svg>
