<svg width="19" height="19" viewBox="0 0 19 19" fill="none" xmlns="http://www.w3.org/2000/svg">
<path d="M13.9248 7.71875H12.7644C12.7639 7.24648 12.5804 6.79368 12.2541 6.45974C11.9277 6.12579 11.4853 5.93797 11.0238 5.9375V4.75C11.7929 4.75094 12.5302 5.06402 13.0741 5.62057C13.6179 6.17711 13.9239 6.93168 13.9248 7.71875Z" fill="#4E80EF"/>
<path d="M16.2456 7.71882H15.0852C15.0839 6.61689 14.6556 5.56047 13.8943 4.78129C13.1329 4.00211 12.1006 3.56382 11.0238 3.56256V2.37506C12.4082 2.37663 13.7355 2.94014 14.7144 3.94195C15.6934 4.94375 16.244 6.30205 16.2456 7.71882Z" fill="#4E80EF"/>
<path d="M11.7972 12.7549L13.0968 11.4249C13.2708 11.2468 13.492 11.1249 13.733 11.0743C13.974 11.0236 14.2243 11.0464 14.4527 11.1399L16.0355 11.7883C16.2688 11.8838 16.4688 12.0487 16.6096 12.2616C16.7505 12.4745 16.8257 12.7258 16.8257 12.9829V15.9285C16.8261 16.1036 16.7916 16.2769 16.7243 16.4378C16.657 16.5988 16.5583 16.744 16.4342 16.8646C16.3102 16.9851 16.1634 17.0785 16.0029 17.139C15.8423 17.1995 15.6714 17.2258 15.5006 17.2163C4.4061 16.5098 2.16539 6.8934 1.74939 3.21096C1.72924 3.03093 1.74656 2.84858 1.80022 2.67589C1.85388 2.50321 1.94265 2.34411 2.0607 2.20905C2.17876 2.074 2.32341 1.96605 2.48515 1.89231C2.64689 1.81856 2.82206 1.7807 2.99913 1.78121H5.82641C6.07768 1.7812 6.32318 1.85824 6.53126 2.00238C6.73933 2.14652 6.90043 2.35116 6.99377 2.5899L7.62676 4.20965C7.71811 4.44345 7.74041 4.69955 7.69091 4.9462C7.6414 5.19285 7.52227 5.41921 7.34826 5.59724L6.04863 6.92724C6.04863 6.92724 6.76923 12.1119 11.7972 12.7549Z" fill="#4E80EF"/>
</svg>
