<svg width="127" height="26" viewBox="0 0 127 26" fill="none" xmlns="http://www.w3.org/2000/svg">
<rect y="9.4074" width="4.7037" height="8.23148" rx="2.336" fill="white"/>
<rect x="18.8148" y="7.05561" width="4.7037" height="11.7593" rx="2.336" fill="white"/>
<rect x="37.6296" width="4.7037" height="25.8704" rx="2.336" fill="white"/>
<rect x="56.4444" y="4.70382" width="4.7037" height="17.6389" rx="2.336" fill="white"/>
<rect x="75.2592" y="9.4074" width="4.7037" height="9.4074" rx="2.336" fill="white"/>
<rect x="94.074" y="2.35179" width="4.7037" height="18.8148" rx="2.336" fill="white"/>
<rect x="112.889" y="7.05561" width="4.7037" height="11.7593" rx="2.336" fill="white"/>
<rect x="9.4074" y="7.05561" width="4.7037" height="11.7593" rx="2.336" fill="white"/>
<rect x="28.2222" y="5.87972" width="4.7037" height="12.9352" rx="2.336" fill="white"/>
<rect x="47.037" y="7.05561" width="4.7037" height="11.7593" rx="2.336" fill="white"/>
<rect x="65.8518" y="8.2315" width="4.7037" height="12.9352" rx="2.336" fill="white"/>
<rect x="84.6666" y="9.4074" width="4.7037" height="8.23148" rx="2.336" fill="white"/>
<rect x="103.481" width="4.7037" height="24.6944" rx="2.336" fill="white"/>
<rect x="122.296" y="9.4074" width="4.7037" height="8.23148" rx="2.336" fill="white"/>
</svg>
