<svg width="151" height="51" viewBox="0 0 151 51" fill="none" xmlns="http://www.w3.org/2000/svg">
<path d="M7.00232 40.0133C7.00232 36.678 8.382 33.4794 10.8378 31.121C13.2937 28.7626 16.6245 27.4377 20.0976 27.4377C23.5706 27.4377 26.9015 28.7626 29.3573 31.121C31.8131 33.4794 33.1928 36.678 33.1928 40.0133H7.00232ZM20.0976 25.8657C14.6712 25.8657 10.2761 21.645 10.2761 16.434C10.2761 11.223 14.6712 7.00232 20.0976 7.00232C25.5239 7.00232 29.919 11.223 29.919 16.434C29.919 21.645 25.5239 25.8657 20.0976 25.8657ZM36.4666 32.1535H43.0143V35.2974H36.4666V32.1535ZM31.5559 24.2938H43.0143V27.4377H31.5559V24.2938ZM34.8297 16.434H43.0143V19.5779H34.8297V16.434Z" fill="white"/>
<path d="M128.518 2.81026C124.42 2.81509 120.491 4.44511 117.593 7.34276C114.696 10.2404 113.066 14.1691 113.061 18.2669C113.056 21.6157 114.15 24.8737 116.175 27.541C116.175 27.541 116.596 28.096 116.665 28.1761L128.518 42.1545L140.376 28.1691C140.438 28.0946 140.86 27.541 140.86 27.541L140.862 27.5367C142.886 24.8706 143.979 21.6142 143.974 18.2669C143.969 14.1691 142.339 10.2404 139.442 7.34276C136.544 4.44511 132.615 2.81509 128.518 2.81026ZM128.518 23.8876C127.406 23.8876 126.319 23.5579 125.395 22.9403C124.471 22.3227 123.75 21.4449 123.325 20.4179C122.899 19.3908 122.788 18.2607 123.005 17.1704C123.222 16.0801 123.757 15.0786 124.543 14.2926C125.329 13.5065 126.331 12.9712 127.421 12.7543C128.511 12.5375 129.641 12.6488 130.669 13.0742C131.696 13.4996 132.573 14.22 133.191 15.1443C133.809 16.0686 134.138 17.1553 134.138 18.2669C134.136 19.7571 133.544 21.1856 132.49 22.2393C131.436 23.2929 130.008 23.8857 128.518 23.8876Z" fill="white"/>
</svg>
