<svg width="19" height="19" viewBox="0 0 19 19" fill="none" xmlns="http://www.w3.org/2000/svg">
<path d="M16.2209 2.78001C12.5148 -0.926519 6.48489 -0.926519 2.77945 2.77911C-0.92672 6.48474 -0.926362 12.5148 2.7798 16.2211C6.48489 19.9266 12.5148 19.9266 16.2206 16.2204C19.9264 12.5148 19.9262 6.4851 16.2209 2.78001ZM15.1839 15.1841C12.0499 18.318 6.95032 18.3184 3.81616 15.1844C0.68147 12.0499 0.681828 6.9498 3.81616 3.81583C6.95014 0.68203 12.0495 0.681672 15.1842 3.81618C18.3182 6.95016 18.3178 12.0503 15.1839 15.1841ZM5.9548 6.92777C5.9548 6.31437 6.45229 5.81688 7.06568 5.81688C7.6789 5.81688 8.17639 6.31419 8.17639 6.92777C8.17639 7.54152 7.6789 8.03883 7.06568 8.03883C6.45229 8.03883 5.9548 7.54152 5.9548 6.92777ZM10.9918 6.92777C10.9918 6.31437 11.4897 5.81688 12.1031 5.81688C12.7163 5.81688 13.2138 6.31419 13.2138 6.92777C13.2138 7.54152 12.7165 8.03883 12.1031 8.03883C11.4897 8.03883 10.9918 7.54152 10.9918 6.92777ZM13.6181 11.4775C12.9297 13.0696 11.3173 14.0982 9.51084 14.0982C7.66546 14.0982 6.04366 13.0644 5.37903 11.4643C5.26509 11.1904 5.39497 10.8758 5.66924 10.7618C5.7366 10.7341 5.80647 10.7208 5.87526 10.7208C6.08594 10.7208 6.28586 10.8453 6.37167 11.0522C6.86916 12.25 8.10133 13.0236 9.51084 13.0236C10.8885 13.0236 12.1135 12.2495 12.6316 11.051C12.7494 10.7785 13.0658 10.6529 13.3381 10.771C13.6104 10.889 13.736 11.2052 13.6181 11.4775Z" fill="#AAAAAA"/>
</svg>
