<svg width="147" height="150" viewBox="0 0 147 150" fill="none" xmlns="http://www.w3.org/2000/svg">
<path d="M139.973 10.89H134.001L132.579 6.90288C132.48 6.63005 132.3 6.39422 132.063 6.2276C131.826 6.06099 131.543 5.97171 131.253 5.97196H117.781C117.188 5.97196 116.656 6.34521 116.459 6.90288L115.032 10.89H109.06C107.119 10.89 105.547 12.462 105.547 14.4029V34.4264C105.547 36.3673 107.119 37.9393 109.06 37.9393H139.973C141.914 37.9393 143.486 36.3673 143.486 34.4264V14.4029C143.486 12.462 141.914 10.89 139.973 10.89ZM140.325 34.4264C140.325 34.6196 140.166 34.7777 139.973 34.7777H109.06C108.867 34.7777 108.709 34.6196 108.709 34.4264V14.4029C108.709 14.2097 108.867 14.0516 109.06 14.0516H117.258L118.009 11.9527L119.014 9.13357H130.014L131.02 11.9527L131.771 14.0516H139.973C140.166 14.0516 140.325 14.2097 140.325 14.4029V34.4264ZM124.517 16.8619C120.635 16.8619 117.491 20.006 117.491 23.8877C117.491 27.7695 120.635 30.9135 124.517 30.9135C128.398 30.9135 131.542 27.7695 131.542 23.8877C131.542 20.006 128.398 16.8619 124.517 16.8619ZM124.517 28.1032C122.189 28.1032 120.301 26.215 120.301 23.8877C120.301 21.5604 122.189 19.6722 124.517 19.6722C126.844 19.6722 128.732 21.5604 128.732 23.8877C128.732 26.215 126.844 28.1032 124.517 28.1032Z" fill="white"/>
<path d="M15.5677 130.329H14.4111C11.8556 130.329 9.78451 132.38 9.78451 134.911V139.467C9.78451 141.997 11.8556 144.048 14.4111 144.048H15.5677C16.8451 144.048 17.881 143.022 17.881 141.757V132.62C17.881 131.355 16.8451 130.329 15.5677 130.329ZM30.604 130.329H29.4473C28.17 130.329 27.1341 131.355 27.1341 132.62V141.757C27.1341 143.022 28.17 144.048 29.4473 144.048H30.604C33.1594 144.048 35.2305 141.997 35.2305 139.467V134.911C35.2305 132.381 33.1594 130.329 30.604 130.329ZM22.5075 112.037C12.1636 112.037 4.3317 120.55 4.00134 130.329V138.332C4.00134 138.964 4.51893 139.475 5.15797 139.475H6.31461C6.95365 139.475 7.47124 138.964 7.47124 138.332V130.329C7.47124 122.136 14.218 115.481 22.5075 115.48C30.797 115.481 37.5438 122.136 37.5438 130.329V138.332C37.5438 138.964 38.0614 139.475 38.7004 139.475H39.857C40.4961 139.475 41.0137 138.964 41.0137 138.332V130.329C40.6833 120.55 32.8514 112.037 22.5075 112.037Z" fill="white"/>
</svg>
