<svg width="22" height="22" viewBox="0 0 22 22" fill="none" xmlns="http://www.w3.org/2000/svg">
<path d="M11 0C8.08262 0 5.28473 1.16069 3.22183 3.22673C1.15893 5.29277 0 8.09492 0 11.0167C0.000389226 11.393 0.0207885 11.7689 0.0611111 12.1429C0.3471 14.8488 1.62286 17.353 3.64258 19.173C5.66231 20.993 8.28309 22 11 22C13.7169 22 16.3377 20.993 18.3574 19.173C20.3771 17.353 21.6529 14.8488 21.9389 12.1429C21.9792 11.7689 21.9996 11.393 22 11.0167C22 8.09492 20.8411 5.29277 18.7782 3.22673C16.7153 1.16069 13.9174 0 11 0V0ZM17.6244 16.4272C17.6122 16.4272 17.5511 16.5251 17.5389 16.5251C16.7388 17.4831 15.7385 18.2536 14.6087 18.7823C13.4789 19.311 12.247 19.585 11 19.585C9.75295 19.585 8.52109 19.311 7.39128 18.7823C6.26147 18.2536 5.26124 17.4831 4.46111 16.5251C4.44889 16.5251 4.38778 16.4272 4.37556 16.4272C4.30844 16.3297 4.2703 16.2151 4.26556 16.0967C4.26783 15.9683 4.3087 15.8435 4.38283 15.7387C4.45696 15.6339 4.56091 15.5539 4.68111 15.5091C5.58556 15.2031 6.45333 14.9093 6.69778 14.8481C6.6921 14.8205 6.69243 14.792 6.69876 14.7646C6.70509 14.7371 6.71726 14.7113 6.73444 14.689C6.76649 14.5705 6.83407 14.4647 6.92805 14.3859C7.02204 14.3071 7.1379 14.2591 7.26 14.2483L8.81222 14.1259C8.79914 13.7914 8.72022 13.4628 8.58 13.1589V13.1467C8.44903 12.8009 8.26332 12.4785 8.03 12.1919C7.39084 11.3568 7.05075 10.3307 7.06444 9.27855C6.99685 8.19661 7.35595 7.13131 8.06451 6.3118C8.77306 5.49228 9.77447 4.98402 10.8533 4.89633H11.1467C12.2255 4.98402 13.2269 5.49228 13.9355 6.3118C14.6441 7.13131 15.0032 8.19661 14.9356 9.27855C14.9492 10.3307 14.6092 11.3568 13.97 12.1919C13.7367 12.4785 13.551 12.8009 13.42 13.1467V13.1589C13.2798 13.4628 13.2009 13.7914 13.1878 14.1259L14.74 14.2483C14.8621 14.2591 14.978 14.3071 15.0719 14.3859C15.1659 14.4647 15.2335 14.5705 15.2656 14.689C15.2827 14.7113 15.2949 14.7371 15.3012 14.7646C15.3076 14.792 15.3079 14.8205 15.3022 14.8481C15.5467 14.9093 16.4144 15.2031 17.3189 15.5091C17.4085 15.5379 17.4901 15.5875 17.557 15.6537C17.6239 15.72 17.6743 15.8012 17.7041 15.8906C17.7338 15.98 17.7421 16.0752 17.7283 16.1684C17.7145 16.2617 17.6789 16.3503 17.6244 16.4272Z" fill="black"/>
</svg>
