<svg width="45" height="45" viewBox="0 0 45 45" fill="none" xmlns="http://www.w3.org/2000/svg">
<path d="M36.1408 13.0781L26.297 3.23433C26.0158 2.95308 25.7345 2.81245 25.3126 2.81245H11.2501C9.70323 2.81245 8.43761 4.07808 8.43761 5.62496V39.375C8.43761 40.9219 9.70323 42.1875 11.2501 42.1875H33.7501C35.297 42.1875 36.5626 40.9219 36.5626 39.375V14.0625C36.5626 13.6406 36.422 13.3593 36.1408 13.0781ZM25.3126 6.18746L33.1876 14.0625H25.3126V6.18746ZM33.7501 39.375H11.2501V5.62496H22.5001V14.0625C22.5001 15.6093 23.7657 16.875 25.3126 16.875H33.7501V39.375Z" fill="white"/>
<path d="M14.0625 30.9375H30.9375V33.75H14.0625V30.9375ZM14.0625 22.5H30.9375V25.3125H14.0625V22.5Z" fill="white"/>
</svg>
