<svg width="45" height="45" viewBox="0 0 45 45" fill="none" xmlns="http://www.w3.org/2000/svg">
<path d="M7.01255 5.15625C6.51527 5.15625 6.03836 5.35379 5.68673 5.70542C5.33509 6.05705 5.13755 6.53397 5.13755 7.03125V7.03125V37.9688C5.13755 38.4661 5.33509 38.943 5.68673 39.2946C6.03836 39.6462 6.51527 39.8438 7.01255 39.8438H37.9876C38.4849 39.8438 38.9618 39.6462 39.3134 39.2946C39.665 38.943 39.8626 38.4661 39.8626 37.9688V7.03125C39.8626 6.53397 39.665 6.05705 39.3134 5.70542C38.9618 5.35379 38.4849 5.15625 37.9876 5.15625H7.01255Z" stroke="white" stroke-linecap="round" stroke-linejoin="round"/>
<path d="M29.3626 11.3625C30.1914 11.3625 31.0016 11.6083 31.6908 12.0687C32.3799 12.5292 32.917 13.1837 33.2342 13.9494C33.5514 14.7152 33.6344 15.5578 33.4727 16.3707C33.311 17.1836 32.9119 17.9303 32.3258 18.5163C31.7397 19.1024 30.993 19.5015 30.1801 19.6632C29.3672 19.8249 28.5246 19.7419 27.7589 19.4248C26.9931 19.1076 26.3387 18.5705 25.8782 17.8813C25.4177 17.1922 25.1719 16.3819 25.1719 15.5531C25.1719 14.4417 25.6134 13.3758 26.3993 12.5899C27.1852 11.804 28.2511 11.3625 29.3626 11.3625V11.3625ZM18.7501 19.6875L25.5188 26.4563C25.5799 26.5186 25.6528 26.5682 25.7333 26.602C25.8138 26.6358 25.9003 26.6532 25.9876 26.6532C26.0749 26.6532 26.1613 26.6358 26.2418 26.602C26.3223 26.5682 26.3952 26.5186 26.4563 26.4563L27.7501 25.1625C27.8747 25.0388 28.0432 24.9695 28.2188 24.9695C28.3944 24.9695 28.5629 25.0388 28.6876 25.1625L36.0094 32.4844C36.1032 32.5762 36.1672 32.694 36.1933 32.8225C36.2195 32.9511 36.2065 33.0845 36.156 33.2056C36.1056 33.3267 36.02 33.4299 35.9103 33.5019C35.8006 33.5738 35.6719 33.6113 35.5407 33.6094H9.45005C9.3297 33.6103 9.2114 33.5782 9.1081 33.5164C9.0048 33.4547 8.92047 33.3657 8.86433 33.2592C8.8082 33.1528 8.78242 33.0329 8.78983 32.9128C8.79723 32.7927 8.83752 32.6769 8.90629 32.5781L17.8126 19.8094C17.8651 19.7384 17.9314 19.6788 18.0074 19.6341C18.0835 19.5894 18.1679 19.5605 18.2554 19.5491C18.3429 19.5377 18.4318 19.5441 18.5168 19.5679C18.6018 19.5917 18.6811 19.6323 18.7501 19.6875V19.6875Z" stroke="white" stroke-linecap="round" stroke-linejoin="round"/>
</svg>
