<svg width="19" height="19" viewBox="0 0 19 19" fill="none" xmlns="http://www.w3.org/2000/svg">
<path d="M13.9248 7.71875H12.7644C12.7639 7.24648 12.5804 6.79368 12.2541 6.45974C11.9277 6.12579 11.4853 5.93797 11.0238 5.9375V4.75C11.7929 4.75094 12.5302 5.06402 13.0741 5.62057C13.6179 6.17711 13.9239 6.93168 13.9248 7.71875Z" fill="#323FA6"/>
<path d="M16.2456 7.71882H15.0852C15.0839 6.61689 14.6556 5.56047 13.8943 4.78129C13.1329 4.00211 12.1006 3.56382 11.0238 3.56256V2.37506C12.4082 2.37663 13.7355 2.94014 14.7144 3.94195C15.6934 4.94375 16.244 6.30205 16.2456 7.71882Z" fill="#323FA6"/>
<path d="M11.7971 12.7549L13.0967 11.4249C13.2707 11.2468 13.4919 11.1249 13.7329 11.0743C13.9739 11.0236 14.2242 11.0464 14.4526 11.1399L16.0354 11.7883C16.2687 11.8838 16.4686 12.0487 16.6095 12.2616C16.7503 12.4745 16.8256 12.7258 16.8256 12.9829V15.9285C16.826 16.1036 16.7915 16.2769 16.7242 16.4378C16.6569 16.5988 16.5582 16.744 16.4341 16.8646C16.3101 16.9851 16.1633 17.0785 16.0027 17.139C15.8422 17.1995 15.6713 17.2258 15.5005 17.2163C4.40597 16.5098 2.16526 6.8934 1.74926 3.21096C1.72912 3.03093 1.74644 2.84858 1.8001 2.67589C1.85375 2.50321 1.94253 2.34411 2.06058 2.20905C2.17863 2.074 2.32329 1.96605 2.48503 1.89231C2.64677 1.81856 2.82194 1.7807 2.999 1.78121H5.82629C6.07755 1.7812 6.32306 1.85824 6.53113 2.00238C6.7392 2.14652 6.9003 2.35116 6.99364 2.5899L7.62663 4.20965C7.71798 4.44345 7.74029 4.69955 7.69078 4.9462C7.64128 5.19285 7.52214 5.41921 7.34814 5.59724L6.0485 6.92724C6.0485 6.92724 6.76911 12.1119 11.7971 12.7549Z" fill="#323FA6"/>
</svg>
