<svg width="22" height="22" viewBox="0 0 22 22" fill="none" xmlns="http://www.w3.org/2000/svg">
<path d="M12.2251 14.028L6.84108 15.1708L7.98387 9.78675C8.06634 9.39797 8.25484 9.04453 8.53759 8.76178L16.0776 1.22174C16.8788 0.420614 18.1747 0.420614 18.9758 1.22174L20.7784 3.02428C21.5795 3.82541 21.5795 5.12135 20.7784 5.92248L13.2383 13.4625C12.9674 13.7453 12.6139 13.9456 12.2251 14.028Z" stroke="#323FA6" stroke-width="1.2" stroke-miterlimit="10" stroke-linecap="round" stroke-linejoin="round"/>
<path d="M18.3399 8.40839V19.0705C18.3399 20.3311 17.3149 21.3443 16.0661 21.3443H2.89459C1.63399 21.3443 0.620801 20.3193 0.620801 19.0705V5.91076C0.620801 4.65016 1.64577 3.63696 2.89459 3.63696H13.5213" stroke="#323FA6" stroke-width="1.2" stroke-miterlimit="10" stroke-linecap="round" stroke-linejoin="round"/>
</svg>
