<svg width="20" height="21" viewBox="0 0 20 21" fill="none" xmlns="http://www.w3.org/2000/svg">
<path d="M17.5643 4.22829C17.2954 3.90772 16.8508 3.81465 16.4578 3.93874C15.6202 4.21794 14.6688 4.14556 13.8416 3.68021C13.0143 3.20453 12.4766 2.41862 12.2904 1.56032C12.1973 1.14668 11.8871 0.805432 11.4735 0.743386C10.4394 0.577931 9.36393 0.577931 8.30915 0.753727C7.89551 0.826114 7.59562 1.15702 7.50256 1.57066C7.31642 2.4393 6.78903 3.22521 5.96175 3.71124C5.13448 4.19726 4.18311 4.25931 3.34549 3.99044C2.95254 3.86635 2.50788 3.95942 2.23901 4.27999C1.56685 5.11761 1.03946 6.04829 0.67753 7.03068C0.532756 7.42364 0.67753 7.85796 0.987758 8.12682C1.63924 8.7266 2.05288 9.5849 2.06322 10.5363C2.06322 11.498 1.64958 12.3459 0.998099 12.9457C0.687871 13.2249 0.553438 13.6592 0.698212 14.0418C0.884349 14.5279 1.11185 15.0139 1.38071 15.4792C1.64958 15.9446 1.95981 16.3789 2.29072 16.7822C2.55958 17.1028 3.00424 17.1958 3.3972 17.0717C4.23482 16.7925 5.18618 16.8649 6.01346 17.3303C6.84073 17.8059 7.37846 18.5919 7.5646 19.4502C7.65767 19.8535 7.95756 20.1947 8.37119 20.2568C9.41563 20.4222 10.4807 20.4222 11.5355 20.2464C11.9492 20.174 12.249 19.8431 12.3421 19.4295C12.5283 18.5608 13.0556 17.7749 13.8829 17.2889C14.7102 16.8029 15.6616 16.7408 16.4992 17.0097C16.9025 17.1338 17.3471 17.0407 17.6057 16.7098C18.2778 15.8722 18.8052 14.9415 19.1775 13.9591C19.3223 13.5662 19.1775 13.1318 18.8673 12.863C18.2054 12.2735 17.7918 11.4152 17.7815 10.4639C17.7815 9.50217 18.1951 8.65421 18.8466 8.05444C19.1568 7.77523 19.2912 7.34091 19.1465 6.9583C18.9603 6.47227 18.7328 5.98625 18.464 5.5209C18.2054 5.05556 17.8952 4.63158 17.5643 4.22829Z" stroke="#323FA6" stroke-width="1.2" stroke-miterlimit="10" stroke-linecap="round" stroke-linejoin="round"/>
<path d="M9.93267 13.566C11.6232 13.566 12.9936 12.1956 12.9936 10.5051C12.9936 8.81459 11.6232 7.44417 9.93267 7.44417C8.24217 7.44417 6.87175 8.81459 6.87175 10.5051C6.87175 12.1956 8.24217 13.566 9.93267 13.566Z" stroke="#323FA6" stroke-width="1.2" stroke-miterlimit="10" stroke-linecap="round" stroke-linejoin="round"/>
</svg>
