<svg width="16" height="12" viewBox="0 0 16 12" fill="none" xmlns="http://www.w3.org/2000/svg">
<path d="M10.8571 11.6955H1.14285C0.839748 11.6955 0.549059 11.5723 0.334733 11.353C0.120407 11.1336 0 10.8362 0 10.526V1.16955C0 0.859368 0.120407 0.561888 0.334733 0.342554C0.549059 0.12322 0.839748 0 1.14285 0H10.8571C11.1602 0 11.4509 0.12322 11.6652 0.342554C11.8795 0.561888 11.9999 0.859368 11.9999 1.16955V3.54374L15.0971 1.28066C15.1823 1.21852 15.2827 1.18155 15.3871 1.17378C15.4915 1.16602 15.596 1.18777 15.6892 1.23665C15.7823 1.28552 15.8606 1.35966 15.9154 1.45095C15.9702 1.54224 15.9994 1.64719 15.9999 1.75433V9.9412C15.9994 10.0483 15.9702 10.1533 15.9154 10.2446C15.8606 10.3359 15.7823 10.41 15.6892 10.4589C15.596 10.5078 15.4915 10.5295 15.3871 10.5217C15.2827 10.514 15.1823 10.477 15.0971 10.4149L11.9999 8.15178V10.526C11.9999 10.8362 11.8795 11.1336 11.6652 11.353C11.4509 11.5723 11.1602 11.6955 10.8571 11.6955Z" fill="#4E80EF"/>
</svg>
