<svg width="21" height="20" viewBox="0 0 21 20" fill="none" xmlns="http://www.w3.org/2000/svg">
<path d="M0.621882 3.57243V15.7283C0.621882 16.3302 1.31819 16.6842 1.80206 16.3184L4.31585 14.4183C4.43387 14.3121 4.58729 14.2649 4.75252 14.2649H14.2766C15.9052 14.2649 17.227 12.9431 17.227 11.3144V3.57243C17.227 1.94378 15.9052 0.621977 14.2766 0.621977H3.57234C1.94368 0.621977 0.621882 1.94378 0.621882 3.57243Z" stroke="#323FA6" stroke-width="1.2" stroke-miterlimit="10" stroke-linecap="round" stroke-linejoin="round"/>
<path d="M9.7919 5.76733H6.14514" stroke="#323FA6" stroke-width="1.2" stroke-miterlimit="10" stroke-linecap="round" stroke-linejoin="round"/>
<path d="M11.7038 8.98906H6.14514" stroke="#323FA6" stroke-width="1.2" stroke-miterlimit="10" stroke-linecap="round" stroke-linejoin="round"/>
<path d="M20.3781 6.33414V18.7142C20.3781 19.2335 19.7762 19.5404 19.3632 19.2217L17.2034 17.5813C17.0972 17.4987 16.9556 17.4515 16.8258 17.4515H6.69982" stroke="#323FA6" stroke-width="1.2" stroke-miterlimit="10" stroke-linecap="round" stroke-linejoin="round"/>
</svg>
