<svg width="21" height="21" viewBox="0 0 21 21" fill="none" xmlns="http://www.w3.org/2000/svg">
<path fill-rule="evenodd" clip-rule="evenodd" d="M8.94459 2.0684C11.7024 -0.689466 16.1737 -0.689466 18.9316 2.0684C21.6895 4.82621 21.6895 9.29756 18.9315 12.0554M18.9315 12.0554C17.0821 13.9048 14.4637 14.5127 12.1095 13.884L5.33826 20.6553C5.09126 20.9023 4.74732 21.0268 4.39944 20.9952L1.34785 20.7177C0.78201 20.6663 0.333694 20.218 0.282254 19.6522L0.0048392 16.6006C-0.0267855 16.2527 0.09774 15.9088 0.344736 15.6618L7.11603 8.89047C6.48731 6.5363 7.09511 3.91783 8.94459 2.0684M9.27383 10.0617C9.60712 9.74143 9.73347 9.24005 9.55436 8.78296C8.89138 7.09105 9.24524 5.09672 10.6091 3.73291L10.6091 3.73289C12.4476 1.89433 15.4285 1.89433 17.267 3.73289L17.2671 3.73292C19.1057 5.57148 19.1057 8.55233 17.2671 10.3909L17.267 10.3909C15.9032 11.7547 13.9089 12.1086 12.217 11.4456C11.7599 11.2665 11.2585 11.3929 10.9383 11.7262C10.9366 11.7278 10.935 11.7295 10.9333 11.7311L4.06355 18.601L2.53775 18.4622L2.39905 16.9365L9.26887 10.0666C9.27053 10.065 9.27218 10.0633 9.27383 10.0617ZM14.7703 5.05267C15.4203 5.05267 15.9473 5.57962 15.9473 6.22965V6.25648C15.9473 6.90651 15.4203 7.43346 14.7703 7.43346C14.1203 7.43346 13.5933 6.90651 13.5933 6.25648V6.22965C13.5933 5.57962 14.1203 5.05267 14.7703 5.05267Z" fill="black"/>
</svg>
