<svg width="20" height="21" viewBox="0 0 20 21" fill="none" xmlns="http://www.w3.org/2000/svg">
<path d="M17.5642 4.22829C17.2954 3.90772 16.8507 3.81465 16.4578 3.93874C15.6201 4.21794 14.6688 4.14556 13.8415 3.68021C13.0142 3.20453 12.4765 2.41862 12.2904 1.56032C12.1973 1.14668 11.8871 0.805432 11.4734 0.743386C10.4393 0.577931 9.36386 0.577931 8.30909 0.753727C7.89545 0.826114 7.59556 1.15702 7.50249 1.57066C7.31635 2.4393 6.78897 3.22521 5.96169 3.71124C5.13441 4.19726 4.18305 4.25931 3.34543 3.99044C2.95247 3.86635 2.50781 3.95942 2.23895 4.27999C1.56679 5.11761 1.0394 6.04829 0.677467 7.03068C0.532693 7.42364 0.677467 7.85796 0.987695 8.12682C1.63917 8.7266 2.05281 9.5849 2.06315 10.5363C2.06315 11.498 1.64952 12.3459 0.998036 12.9457C0.687808 13.2249 0.553375 13.6592 0.698148 14.0418C0.884286 14.5279 1.11179 15.0139 1.38065 15.4792C1.64952 15.9446 1.95974 16.3789 2.29065 16.7822C2.55952 17.1028 3.00418 17.1958 3.39714 17.0717C4.23475 16.7925 5.18612 16.8649 6.0134 17.3303C6.84067 17.8059 7.3784 18.5919 7.56454 19.4502C7.65761 19.8535 7.95749 20.1947 8.37113 20.2568C9.41557 20.4222 10.4807 20.4222 11.5355 20.2464C11.9491 20.174 12.249 19.8431 12.3421 19.4295C12.5282 18.5608 13.0556 17.7749 13.8829 17.2889C14.7101 16.8029 15.6615 16.7408 16.4991 17.0097C16.9024 17.1338 17.3471 17.0407 17.6056 16.7098C18.2778 15.8722 18.8051 14.9415 19.1774 13.9591C19.3222 13.5662 19.1774 13.1318 18.8672 12.863C18.2054 12.2735 17.7917 11.4152 17.7814 10.4639C17.7814 9.50217 18.195 8.65421 18.8465 8.05444C19.1567 7.77523 19.2912 7.34091 19.1464 6.9583C18.9603 6.47227 18.7328 5.98625 18.4639 5.5209C18.2054 5.05556 17.8951 4.63158 17.5642 4.22829Z" stroke="#AAAAAA" stroke-width="1.2" stroke-miterlimit="10" stroke-linecap="round" stroke-linejoin="round"/>
<path d="M9.9325 13.5663C11.623 13.5663 12.9934 12.1958 12.9934 10.5053C12.9934 8.81484 11.623 7.44442 9.9325 7.44442C8.242 7.44442 6.87158 8.81484 6.87158 10.5053C6.87158 12.1958 8.242 13.5663 9.9325 13.5663Z" stroke="#AAAAAA" stroke-width="1.2" stroke-miterlimit="10" stroke-linecap="round" stroke-linejoin="round"/>
</svg>
